<?xml version="1.0" encoding="UTF-8"?>
<svg width="460px" height="342px" viewBox="0 0 460 342" version="1.1" xmlns="http://www.w3.org/2000/svg" xmlns:xlink="http://www.w3.org/1999/xlink">
    <!-- Generator: Sketch 57.1 (83088) - https://sketch.com -->
    <title>Artboard</title>
    <desc>Created with Sketch.</desc>
    <g id="Artboard" stroke="none" stroke-width="1" fill="none" fill-rule="evenodd">
        <g id="ico-en" transform="translate(17.000000, 17.000000)">
            <g>
                <rect id="Rectangle" fill="#F0F0F0" fill-rule="nonzero" x="0" y="0.299894737" width="426" height="307.402912"></rect>
                <polygon id="Path" fill="#D80027" fill-rule="nonzero" points="239.625 0.297192982 186.375 0.297192982 186.375 125.177684 0 125.177684 0 182.815111 186.375 182.815111 186.375 307.695602 239.625 307.695602 239.625 182.815111 426 182.815111 426 125.177684 239.625 125.177684"></polygon>
                <g id="Group" transform="translate(258.761719, 207.134503)" fill="#0052B4" fill-rule="nonzero">
                    <polygon id="Path" points="68.879707 0.322409357 167.238281 59.4692164 167.238281 0.322409357"></polygon>
                    <polygon id="Path" points="0.542484375 0.322409357 167.238281 100.561099 167.238281 72.2160936 47.6812148 0.322409357"></polygon>
                    <polygon id="Path" points="122.836102 100.561099 0.542484375 27.0157427 0.542484375 100.561099"></polygon>
                </g>
                <polygon id="Path" fill="#F0F0F0" fill-rule="nonzero" points="259.304203 207.456912 426 307.695602 426 279.350596 306.442934 207.456912"></polygon>
                <polygon id="Path" fill="#D80027" fill-rule="nonzero" points="259.304203 207.456912 426 307.695602 426 279.350596 306.442934 207.456912"></polygon>
                <g id="Group" transform="translate(0.000000, 207.134503)" fill="#0052B4" fill-rule="nonzero">
                    <polygon id="Path" points="75.1665352 0.320608187 0 45.5209591 0 0.320608187"></polygon>
                    <polygon id="Path" points="166.695797 13.0674854 166.695797 100.560199 21.2093086 100.560199"></polygon>
                </g>
                <polygon id="Path" fill="#D80027" fill-rule="nonzero" points="119.557066 207.456912 0 279.350596 0 307.695602 0 307.695602 166.695797 207.456912"></polygon>
                <g id="Group" fill="#0052B4" fill-rule="nonzero">
                    <polygon id="Path" points="98.3585742 100.535883 0 41.389076 0 100.535883"></polygon>
                    <polygon id="Path" points="166.695797 100.535883 0 0.297192982 0 28.6421988 119.557066 100.535883"></polygon>
                    <polygon id="Path" points="44.4021797 0.297192982 166.695797 73.8425497 166.695797 0.297192982"></polygon>
                </g>
                <polygon id="Path" fill="#F0F0F0" fill-rule="nonzero" points="166.695797 100.535883 0 0.297192982 0 28.6421988 119.557066 100.535883"></polygon>
                <polygon id="Path" fill="#D80027" fill-rule="nonzero" points="166.695797 100.535883 0 0.297192982 0 28.6421988 119.557066 100.535883"></polygon>
                <g id="Group" transform="translate(258.761719, 0.000000)" fill="#0052B4" fill-rule="nonzero">
                    <polygon id="Path" points="92.0717461 100.537684 167.238281 55.3373333 167.238281 100.537684"></polygon>
                    <polygon id="Path" points="0.542484375 87.790807 0.542484375 0.298093567 146.028973 0.298093567"></polygon>
                </g>
                <polygon id="Path" fill="#D80027" fill-rule="nonzero" points="306.442934 100.535883 426 28.6421988 426 0.297192982 426 0.297192982 259.304203 100.535883"></polygon>
            </g>
        </g>
        <path d="M0,0 L460,0 L460,342 L0,342 L0,0 Z M7,5 L7,337 L454,337 L454,5 L7,5 Z" id="Rectangle" fill="#515151" fill-rule="nonzero"></path>
    </g>
</svg>