<?xml version="1.0" encoding="UTF-8"?>
<svg width="18px" height="14px" viewBox="0 0 18 14" version="1.1" xmlns="http://www.w3.org/2000/svg" xmlns:xlink="http://www.w3.org/1999/xlink">
    <!-- Generator: Sketch 57.1 (83088) - https://sketch.com -->
    <title></title>
    <desc>Created with Sketch.</desc>
    <g id="website" stroke="none" stroke-width="1" fill="none" fill-rule="evenodd">
        <g id="7-website-staysafe---landing-full-preview" transform="translate(-802.000000, -5217.000000)" fill="#30C670" fill-rule="nonzero">
            <path d="M817.68,5220.68 L817.68,5219 L811,5223.18 L804.32,5219 L804.32,5220.68 L811,5224.82 L817.68,5220.68 Z M817.68,5217.32 C818.133336,5217.32 818.519998,5217.48667 818.84,5217.82 C819.160002,5218.15333 819.32,5218.54666 819.32,5219 L819.32,5229 C819.32,5229.45334 819.160002,5229.84667 818.84,5230.18 C818.519998,5230.51333 818.133336,5230.68 817.68,5230.68 L804.32,5230.68 C803.866664,5230.68 803.480002,5230.51333 803.16,5230.18 C802.839998,5229.84667 802.68,5229.45334 802.68,5229 L802.68,5219 C802.68,5218.54666 802.839998,5218.15333 803.16,5217.82 C803.480002,5217.48667 803.866664,5217.32 804.32,5217.32 L817.68,5217.32 Z" id=""></path>
        </g>
    </g>
</svg>