<?xml version="1.0" encoding="UTF-8"?>
<svg width="28px" height="28px" viewBox="0 0 28 28" version="1.1" xmlns="http://www.w3.org/2000/svg" xmlns:xlink="http://www.w3.org/1999/xlink">
    <!-- Generator: Sketch 57.1 (83088) - https://sketch.com -->
    <title>facebook</title>
    <desc>Created with Sketch.</desc>
    <g id="website" stroke="none" stroke-width="1" fill="none" fill-rule="evenodd">
        <g id="7-website-staysafe---landing-full-preview" transform="translate(-1095.000000, -5200.000000)">
            <g id="facebook" transform="translate(1095.000000, 5200.000000)">
                <g id="Group" stroke-width="1" fill-rule="evenodd" fill="#4072C0">
                    <circle id="Oval" cx="14" cy="14" r="14"></circle>
                </g>
                <path d="M9.3905906,15.2933129 L11.3652626,15.2933129 L11.3652626,23.5064539 C11.3652626,23.6686187 11.4953054,23.8 11.655818,23.8 L15.0039608,23.8 C15.1644735,23.8 15.2945162,23.6686187 15.2945162,23.5064539 L15.2945162,15.3320234 L17.5645991,15.3320234 C17.712199,15.3320234 17.8364011,15.2201219 17.8532546,15.071998 L18.1980297,12.0483453 C18.2074943,11.9651656 18.1814225,11.8818437 18.1263232,11.8194234 C18.0711887,11.7569676 17.9922694,11.7212074 17.9094446,11.7212074 L15.2946569,11.7212074 L15.2946569,9.8258125 C15.2946569,9.25446758 15.5991455,8.964725 16.1998191,8.964725 C16.2854235,8.964725 17.9094446,8.964725 17.9094446,8.964725 C18.0699573,8.964725 18.2,8.83327266 18.2,8.67117891 L18.2,5.89571445 C18.2,5.73354961 18.0699573,5.60216836 17.9094446,5.60216836 L15.5532998,5.60216836 C15.5366926,5.60135078 15.4997839,5.6 15.4453883,5.6 C15.036577,5.6 13.6155718,5.68108242 12.4930736,6.72434766 C11.2493642,7.88047422 11.4222619,9.26470508 11.4635687,9.50471758 L11.4635687,11.7211363 L9.39055542,11.7211363 C9.23004272,11.7211363 9.1,11.8525176 9.1,12.0146824 L9.1,14.9997312 C9.1,15.1618605 9.23007791,15.2933129 9.3905906,15.2933129 Z" id="Path" fill="#FFFFFF" fill-rule="nonzero"></path>
            </g>
        </g>
    </g>
</svg>