<?xml version="1.0" encoding="UTF-8"?>
<svg width="60px" height="60px" viewBox="0 0 60 60" version="1.1" xmlns="http://www.w3.org/2000/svg" xmlns:xlink="http://www.w3.org/1999/xlink">
    <!-- Generator: Sketch 57.1 (83088) - https://sketch.com -->
    <title>z</title>
    <desc>Created with Sketch.</desc>
    <g id="z" stroke="none" stroke-width="1" fill="none" fill-rule="evenodd">
        <g id="ico-whatsapp-2" transform="translate(4.500000, 7.000000)">
            <g id="ico-whatsapp">
                <g fill-rule="nonzero">
                    <path d="M42.6666667,7.18541667 C37.9259259,2.59375 31.6881092,0 25.0448343,0 C5.97790773,0 -5.99454191,20.6979167 3.52644574,37.1625 L0,50 L13.1721897,46.5583333 C18.9109812,49.6645833 23.6122157,49.3895833 25.0573099,49.5729167 C47.1662118,49.5729167 58.1717999,22.7729167 42.6354776,7.26666667 L42.6666667,7.18541667 Z" id="Path" fill="#FFFFFF"></path>
                    <path d="M25.0905783,45.3145833 L25.0781027,45.3125 L25.0448343,45.3125 C18.42859,45.3125 14.2014295,42.1729167 13.785575,41.9916667 L5.98830409,44.0229167 L8.07797271,36.4291667 L7.58102664,35.6479167 C5.52254711,32.3645833 4.4288499,28.5833333 4.4288499,24.6895833 C4.4288499,6.37083333 26.7706303,-2.78958333 39.6995452,10.1583333 C52.597271,22.9708333 43.5420403,45.3145833 25.0905783,45.3145833 Z" id="Path" fill="#4CAF50"></path>
                    <path d="M36.4018194,29.80625 L36.3831059,29.9625 C35.757245,29.65 32.7090318,28.15625 32.1413905,27.95 C30.8667966,27.4770833 31.2265107,27.875 28.7792073,30.6833333 C28.4153346,31.0895833 28.0535413,31.1208333 27.4359974,30.8395833 C26.8122157,30.5270833 24.8098765,29.8708333 22.4395062,27.7458333 C20.5931124,26.0895833 19.3538661,24.0583333 18.9879142,23.4333333 C18.3786875,22.3791667 19.6532814,22.2291667 20.8135153,20.0291667 C21.0214425,19.5916667 20.9153996,19.2479167 20.7615335,18.9375 C20.605588,18.625 19.3642625,15.5625 18.8444444,14.3416667 C18.3454191,13.125 17.8318389,13.2791667 17.4471735,13.2791667 C16.2495127,13.175 15.3741391,13.1916667 14.602729,13.9958333 C11.2467836,17.6916667 12.0930474,21.5041667 14.9645224,25.5583333 C20.6076673,32.9583333 23.614295,34.3208333 29.1118908,36.2125 C30.5964912,36.6854167 31.9500975,36.61875 33.0209227,36.4645833 C34.214425,36.275 36.6949968,34.9625 37.2127355,33.49375 C37.74295,32.025 37.74295,30.80625 37.5870045,30.525 C37.4331384,30.24375 37.025601,30.0875 36.4018194,29.80625 L36.4018194,29.80625 Z" id="Path" fill="#FAFAFA"></path>
                </g>
            </g>
        </g>
    </g>
</svg>