<?xml version="1.0" encoding="UTF-8"?>
<svg width="12px" height="18px" viewBox="0 0 12 18" version="1.1" xmlns="http://www.w3.org/2000/svg" xmlns:xlink="http://www.w3.org/1999/xlink">
    <!-- Generator: Sketch 57.1 (83088) - https://sketch.com -->
    <title></title>
    <desc>Created with Sketch.</desc>
    <g id="website" stroke="none" stroke-width="1" fill="none" fill-rule="evenodd">
        <g id="7-website-staysafe---landing-full-preview" transform="translate(-439.000000, -5186.000000)" fill="#30C670" fill-rule="nonzero">
            <path d="M445,5194.56 C445.373335,5194.56 445.719998,5194.46667 446.04,5194.28 C446.360002,5194.09333 446.613332,5193.84333 446.8,5193.53 C446.986668,5193.21667 447.08,5192.87334 447.08,5192.5 C447.08,5192.12666 446.986668,5191.78 446.8,5191.46 C446.613332,5191.14 446.360002,5190.88667 446.04,5190.7 C445.719998,5190.51333 445.373335,5190.42 445,5190.42 C444.626665,5190.42 444.283335,5190.51333 443.97,5190.7 C443.656665,5190.88667 443.406668,5191.14 443.22,5191.46 C443.033332,5191.78 442.94,5192.12666 442.94,5192.5 C442.94,5193.07334 443.139998,5193.56 443.54,5193.96 C443.94,5194.36 444.426664,5194.56 445,5194.56 Z M445,5186.68 C446.066672,5186.68 447.046662,5186.94 447.94,5187.46 C448.820004,5187.98 449.519997,5188.68 450.04,5189.56 C450.560003,5190.45334 450.82,5191.43333 450.82,5192.5 C450.82,5193.31334 450.620002,5194.24666 450.22,5195.3 C449.873332,5196.19334 449.393336,5197.15999 448.78,5198.2 C448.273331,5199.02667 447.693337,5199.88666 447.04,5200.78 C446.586664,5201.40667 446.106669,5202.02 445.6,5202.62 L445,5203.32 L444.4,5202.62 C443.893331,5202.02 443.413336,5201.40667 442.96,5200.78 C442.306663,5199.88666 441.726669,5199.02667 441.22,5198.2 C440.606664,5197.15999 440.126668,5196.19334 439.78,5195.3 C439.379998,5194.24666 439.18,5193.31334 439.18,5192.5 C439.18,5191.43333 439.439997,5190.45334 439.96,5189.56 C440.480003,5188.68 441.18,5187.98 442.06,5187.46 C442.953338,5186.94 443.933328,5186.68 445,5186.68 Z" id=""></path>
        </g>
    </g>
</svg>