<?xml version="1.0" encoding="UTF-8"?>
<svg width="28px" height="28px" viewBox="0 0 28 28" version="1.1" xmlns="http://www.w3.org/2000/svg" xmlns:xlink="http://www.w3.org/1999/xlink">
    <!-- Generator: Sketch 57.1 (83088) - https://sketch.com -->
    <title>twitter</title>
    <desc>Created with Sketch.</desc>
    <g id="website" stroke="none" stroke-width="1" fill="none" fill-rule="evenodd">
        <g id="7-website-staysafe---landing-full-preview" transform="translate(-1053.000000, -5200.000000)">
            <g id="twitter" transform="translate(1053.000000, 5200.000000)">
                <g id="Group" stroke-width="1" fill-rule="evenodd" fill="#38C1FF">
                    <circle id="Oval" cx="14" cy="14" r="14"></circle>
                </g>
                <path d="M21,9.72590769 C20.479375,9.95076923 19.924625,10.0998154 19.34625,10.1721846 C19.94125,9.8224 20.395375,9.27273846 20.608875,8.61021538 C20.054125,8.93587692 19.441625,9.16590769 18.788875,9.29427692 C18.262125,8.74203077 17.511375,8.4 16.692375,8.4 C15.103375,8.4 13.824125,9.66990769 13.824125,11.2267077 C13.824125,11.4507077 13.843375,11.6660923 13.890625,11.8711385 C11.5045,11.7565538 9.393125,10.6305231 7.97475,8.9152 C7.727125,9.33821538 7.581875,9.8224 7.581875,10.3436308 C7.581875,11.3223385 8.09375,12.1899077 8.85675,12.6921846 C8.395625,12.6835692 7.94325,12.5517538 7.56,12.3441231 C7.56,12.3527385 7.56,12.3639385 7.56,12.3751385 C7.56,13.7484308 8.554875,14.8891077 9.8595,15.1518769 C9.625875,15.2147692 9.37125,15.2449231 9.107,15.2449231 C8.92325,15.2449231 8.73775,15.2345846 8.563625,15.1966769 C8.9355,16.3158154 9.99075,17.1385846 11.2455,17.1652923 C10.269,17.9174154 9.029125,18.3705846 7.686875,18.3705846 C7.4515,18.3705846 7.22575,18.3602462 7,18.3318154 C8.271375,19.1390769 9.778125,19.6 11.403,19.6 C16.6845,19.6 19.572,15.2923077 19.572,11.5584 C19.572,11.4334769 19.567625,11.3128615 19.5615,11.1931077 C20.131125,10.7950769 20.60975,10.2979692 21,9.72590769 Z" id="Path" fill="#FFFFFF" fill-rule="nonzero"></path>
            </g>
        </g>
    </g>
</svg>