<?xml version="1.0" encoding="UTF-8"?>
<svg width="16px" height="16px" viewBox="0 0 16 16" version="1.1" xmlns="http://www.w3.org/2000/svg" xmlns:xlink="http://www.w3.org/1999/xlink">
    <!-- Generator: Sketch 57.1 (83088) - https://sketch.com -->
    <title></title>
    <desc>Created with Sketch.</desc>
    <g id="website" stroke="none" stroke-width="1" fill="none" fill-rule="evenodd">
        <g id="7-website-staysafe---landing-full-preview" transform="translate(-803.000000, -5187.000000)" fill="#30C670" fill-rule="nonzero">
            <path d="M806.5,5193.98 C807.113336,5195.15334 807.893329,5196.21333 808.84,5197.16 C809.786671,5198.10667 810.846661,5198.88666 812.02,5199.5 L813.86,5197.66 C813.966667,5197.54 814.099999,5197.46 814.26,5197.42 C814.420001,5197.38 814.573333,5197.39333 814.72,5197.46 C815.600004,5197.76667 816.586661,5197.92 817.68,5197.92 C817.906668,5197.92 818.099999,5198 818.26,5198.16 C818.420001,5198.32 818.5,5198.51333 818.5,5198.74 L818.5,5201.68 C818.5,5201.90667 818.420001,5202.1 818.26,5202.26 C818.099999,5202.42 817.906668,5202.5 817.68,5202.5 C815.75999,5202.5 813.920009,5202.12667 812.16,5201.38 C810.466658,5200.66 808.966673,5199.64667 807.66,5198.34 C806.353327,5197.03333 805.340004,5195.53334 804.62,5193.84 C803.87333,5192.07999 803.5,5190.24001 803.5,5188.32 C803.5,5188.09333 803.579999,5187.9 803.74,5187.74 C803.900001,5187.58 804.093332,5187.5 804.32,5187.5 L807.26,5187.5 C807.486668,5187.5 807.679999,5187.58 807.84,5187.74 C808,5187.9 808.08,5188.09333 808.08,5188.32 C808.08,5189.41334 808.233332,5190.4 808.54,5191.28 C808.58,5191.42667 808.586667,5191.58 808.56,5191.74 C808.533333,5191.9 808.460001,5192.03333 808.34,5192.14 L806.5,5193.98 Z" id=""></path>
        </g>
    </g>
</svg>