<?xml version="1.0" encoding="UTF-8"?>
<svg width="28px" height="28px" viewBox="0 0 28 28" version="1.1" xmlns="http://www.w3.org/2000/svg" xmlns:xlink="http://www.w3.org/1999/xlink">
    <!-- Generator: Sketch 57.1 (83088) - https://sketch.com -->
    <title>Group 27</title>
    <desc>Created with Sketch.</desc>
    <defs>
        <linearGradient x1="6.71416922%" y1="93.4850191%" x2="93.6081727%" y2="6.61873642%" id="linearGradient-1">
            <stop stop-color="#FFDD55" offset="0%"></stop>
            <stop stop-color="#FF543E" offset="50%"></stop>
            <stop stop-color="#C837AB" offset="100%"></stop>
        </linearGradient>
    </defs>
    <g id="website" stroke="none" stroke-width="1" fill="none" fill-rule="evenodd">
        <g id="7-website-staysafe---landing-full-preview" transform="translate(-1137.000000, -5200.000000)">
            <g id="Group-27" transform="translate(1137.000000, 5200.000000)">
                <g id="facebook" fill="url(#linearGradient-1)">
                    <g id="Group">
                        <circle id="Oval" cx="14" cy="14" r="14"></circle>
                    </g>
                </g>
                <g id="Shape" transform="translate(6.000000, 6.000000)" fill="#FFFFFF" fill-rule="nonzero">
                    <path d="M8.50021114,0.008193688 C5.01862512,0.008193688 1.71250875,-0.301269977 0.449702694,2.93708045 C-0.0719119554,4.27457666 0.00383723079,6.01159716 0.00383723079,8.49880358 C0.00383723079,10.6813368 -0.0661588526,12.7326114 0.449702694,14.0595686 C1.70963219,17.2998352 5.04259639,16.9894135 8.49829343,16.9894135 C11.8322165,16.9894135 15.2696954,17.3362427 16.547843,14.0595686 C17.0704165,12.7086591 16.9937085,10.9975071 16.9937085,8.49880358 C16.9937085,5.18188963 17.1768489,3.04055436 15.566939,1.43287626 C13.9368932,-0.195879874 11.732496,0.008193688 8.49637573,0.008193688 L8.50021114,0.008193688 Z M7.76684925,1.59525418 C15.0132958,1.58374365 15.9356056,0.776088133 15.426613,11.9959772 C15.2457867,15.9642324 12.2320151,15.5287506 8.52746781,15.5287506 C1.77279227,15.5287506 1.57857143,15.3349901 1.57857143,8.56008399 C1.57857143,1.70652263 2.11435306,1.59909102 7.76684925,1.59333576 L7.76684925,1.59525418 Z M13.0535714,3.03571429 C12.4836111,3.03571429 12.0214286,3.49789679 12.0214286,4.06785714 C12.0214286,4.6378175 12.4836111,5.1 13.0535714,5.1 C13.6235318,5.1 14.0857143,4.6378175 14.0857143,4.06785714 C14.0857143,3.49789679 13.6235318,3.03571429 13.0535714,3.03571429 L13.0535714,3.03571429 Z M8.50048043,4.12857143 C6.08584146,4.12857143 4.12857143,6.08637198 4.12857143,8.50048032 C4.12857143,10.9145887 6.08584146,12.8714286 8.50048043,12.8714286 C10.9151194,12.8714286 12.8714286,10.9145887 12.8714286,8.50048032 C12.8714286,6.08637198 10.9151194,4.12857143 8.50048043,4.12857143 Z M8.49982137,5.70714286 C12.2214861,5.70714286 12.2262513,11.4142857 8.49982137,11.4142857 C4.77910972,11.4142857 4.77339142,5.70714286 8.49982137,5.70714286 Z"></path>
                </g>
            </g>
        </g>
    </g>
</svg>