<?xml version="1.0" encoding="UTF-8"?>
<svg width="360px" height="162px" viewBox="0 0 360 162" version="1.1" xmlns="http://www.w3.org/2000/svg" xmlns:xlink="http://www.w3.org/1999/xlink">
    <!-- Generator: Sketch 57.1 (83088) - https://sketch.com -->
    <title>logo staysafe final</title>
    <desc>Created with Sketch.</desc>
    <g id="logo-staysafe-final" stroke="none" stroke-width="1" fill="none" fill-rule="evenodd">
        <g transform="translate(0.000000, -0.000000)" fill-rule="nonzero" id="Group">
            <g transform="translate(162.507837, 0.000000)">
                <path d="M26.8910972,13.2415674 C19.1911599,13.2415674 15.3411912,15.7847022 15.3411912,20.8704075 C15.3411912,23.1319749 16.2947962,24.8620063 18.2020063,26.0627586 C20.1092163,27.2646395 24.576489,28.9946708 31.6060815,31.2545455 C38.6339812,33.5161129 43.5611285,36.0756113 46.3869592,38.9364263 C49.2116614,41.7972414 50.6257053,46.1945455 50.6257053,52.1283386 C50.6257053,59.68721 48.3297179,65.4094044 43.7383072,69.2937931 C39.1452038,73.1793103 33.1425705,75.1209404 25.7253292,75.1209404 C20.2152978,75.1209404 13.4684013,74.2734169 5.48689655,72.5783699 L1.67247649,71.8363636 L3.15592476,60.499185 C12.6208777,61.7704702 19.8609404,62.406395 24.8772414,62.406395 C32.3644514,62.406395 36.1089028,59.2984326 36.1089028,53.0819436 C36.1089028,50.822069 35.2433229,49.0553605 33.5127273,47.7840752 C31.7810031,46.5122257 28.3373041,45.1354232 23.1816301,43.6514107 C14.9862696,41.3204389 9.21159875,38.5487774 5.85705329,35.333605 C2.50137931,32.1201254 0.824388715,27.6517241 0.824388715,21.9295298 C0.824388715,14.7244514 3.01316614,9.35717868 7.39410658,5.82376176 C11.7733542,2.29260188 17.7776803,0.525893417 25.4070846,0.525893417 C30.6338558,0.525893417 37.2741066,1.23291536 45.3272727,2.64526646 L49.1422571,3.38670846 L47.9770533,14.9360502 C38.0166771,13.8075235 30.9870846,13.2415674 26.8910972,13.2415674 Z" id="Path" fill="#EC1C24"></path>
                <path d="M89.9362382,32.9495925 L76.9034483,32.9495925 L76.9034483,54.6714734 C76.9034483,56.7902821 76.956489,58.2917868 77.0620063,59.1742947 C77.1680878,60.057931 77.5551724,60.8163009 78.22721,61.4522257 C78.8975549,62.0881505 79.939185,62.4058307 81.3532288,62.4058307 L89.4058307,62.1936677 L90.0411912,73.5314107 C85.3081505,74.5910972 81.7058934,75.1203762 79.2338558,75.1203762 C72.8763009,75.1203762 68.5320376,73.6905329 66.2005016,70.8297179 C63.8695298,67.9689028 62.704326,62.6890909 62.704326,54.9885893 L62.704326,32.9490282 L56.4528527,32.9490282 L56.4528527,20.8698433 L62.704326,20.8698433 L62.704326,6.14144201 L76.902884,6.14144201 L76.902884,20.8698433 L89.935674,20.8698433 L89.935674,32.9495925 L89.9362382,32.9495925 Z" id="Path" fill="#EC1C24"></path>
                <path d="M139.736991,37.3999373 L139.736991,59.4394984 C139.877492,61.1345455 140.160752,62.3183699 140.584514,62.9887147 C141.008276,63.6607524 141.890784,64.1375549 143.233166,64.4191223 L142.809404,75.1209404 C139.206583,75.1209404 136.328276,74.8732288 134.173918,74.3794984 C132.018433,73.8846395 129.846019,72.8960502 127.657241,71.4126019 C122.570972,73.8846395 117.379185,75.1209404 112.081317,75.1209404 C101.131223,75.1209404 95.6578683,69.329906 95.6578683,57.7438871 C95.6578683,52.0933542 97.1763009,48.0853918 100.214295,45.7177429 C103.250596,43.3517868 107.913103,41.9563636 114.20069,41.5326019 L125.538433,40.6850784 L125.538433,37.4005016 C125.538433,35.2117241 125.043574,33.7102194 124.054984,32.897116 C123.064702,32.0857053 121.475737,31.6788715 119.286959,31.6788715 L99.3667712,32.526395 L98.9424451,22.6721003 C106.500752,20.6243887 113.687774,19.5996865 120.505204,19.5996865 C127.321505,19.5996865 132.230031,21.0131661 135.234169,23.8378683 C138.235486,26.6636991 139.736991,31.1851411 139.736991,37.3999373 Z M115.896301,51.3868966 C111.939122,51.7412539 109.961944,53.8600627 109.961944,57.7444514 C109.961944,61.6305329 111.691975,63.572163 115.154295,63.572163 C117.837931,63.572163 120.769843,63.1484013 123.948903,62.3003135 L125.537868,61.8765517 L125.537868,50.5388088 L115.896301,51.3868966 Z" id="Shape" fill="#EC1C24"></path>
                <polygon id="Path" fill="#EC1C24" points="147.684075 20.8704075 161.67047 20.8704075 171.312602 61.7704702 173.749655 61.7704702 183.391787 20.8704075 197.378182 20.8704075 178.729279 96.1013793 164.84953 96.1013793 170.676677 73.8496552 160.716865 73.8496552"></polygon>
                <path d="M26.3093417,99.6951724 C18.6094044,99.6951724 14.7594357,102.238307 14.7594357,107.324577 C14.7594357,109.586144 15.7130408,111.316176 17.6202508,112.516364 C19.5274608,113.718809 23.9947335,115.448276 31.024326,117.708715 C38.0522257,119.970282 42.979373,122.529781 45.8052038,125.390596 C48.629906,128.250846 50.0439498,132.64815 50.0439498,138.582508 C50.0439498,146.141379 47.7479624,151.863574 43.1565517,155.747962 C38.5634483,159.63348 32.560815,161.57511 25.1435737,161.57511 C19.6335423,161.57511 12.8866458,160.727586 4.90514107,159.032539 L1.090721,158.290533 L2.57416928,146.953354 C12.0391223,148.224639 19.279185,148.860564 24.2954859,148.860564 C31.7826959,148.860564 35.5271473,145.752602 35.5271473,139.536113 C35.5271473,137.276238 34.6615674,135.50953 32.9309718,134.238245 C31.1992476,132.966395 27.7555486,131.589592 22.5998746,130.10558 C14.4045141,127.774608 8.62984326,125.003511 5.27529781,121.788339 C1.91962382,118.574859 0.242633229,114.106458 0.242633229,108.384263 C0.242633229,101.178621 2.43141066,95.8119122 6.8123511,92.2784953 C11.1915987,88.7467712 17.1959248,86.980627 24.8253292,86.980627 C30.0521003,86.980627 36.6923511,87.6876489 44.7455172,89.0994357 L48.5605016,89.8408777 L47.3952978,101.390784 C37.4349216,100.261693 30.4053292,99.6951724 26.3093417,99.6951724 Z" id="Path" fill="#30C670"></path>
                <path d="M101.115987,123.854107 L101.115987,145.894232 C101.256489,147.589279 101.539749,148.773103 101.963511,149.443448 C102.387273,150.115486 103.269781,150.592288 104.612163,150.873856 L104.188401,161.575674 C100.58558,161.575674 97.7072727,161.327962 95.5529154,160.834232 C93.3974295,160.339373 91.2250157,159.350784 89.0362382,157.867335 C83.9499687,160.339373 78.7581818,161.575674 73.4603135,161.575674 C62.5102194,161.575674 57.0368652,155.784639 57.0368652,144.198621 C57.0368652,138.548088 58.5552978,134.540125 61.5932915,132.172476 C64.6295925,129.807085 69.2921003,128.411097 75.5796865,127.987335 L86.9174295,127.139248 L86.9174295,123.854671 C86.9174295,121.665893 86.4225705,120.164389 85.4339812,119.35185 C84.4436991,118.540439 82.8547335,118.133605 80.6659561,118.133605 L60.745768,118.981129 L60.321442,109.126834 C67.8797492,107.079122 75.0667712,106.05442 81.8842006,106.05442 C88.7005016,106.05442 93.6090282,107.468464 96.6131661,110.292602 C99.6144828,113.117304 101.115987,117.638746 101.115987,123.854107 Z M77.2752978,137.841066 C73.3181191,138.195423 71.3409404,140.314232 71.3409404,144.198621 C71.3409404,148.084702 73.0709718,150.026332 76.5332915,150.026332 C79.2169279,150.026332 82.1488401,149.602571 85.3278997,148.754483 L86.9168652,148.330721 L86.9168652,136.992978 L77.2752978,137.841066 Z" id="Shape" fill="#30C670"></path>
                <path d="M131.418621,119.403762 L131.418621,160.303824 L117.220063,160.303824 L117.220063,119.403762 L111.497868,119.403762 L111.497868,107.324577 L117.220063,107.324577 L117.220063,104.993605 C117.220063,97.3642006 118.349154,92.1030094 120.610721,89.2060815 C122.870596,86.3102821 126.897179,84.8618182 132.689906,84.8618182 C135.233041,84.8618182 138.517618,85.2161755 142.544201,85.9215047 L144.769091,86.239185 L144.557492,97.7885266 C141.447837,97.6480251 138.835298,97.5769279 136.716489,97.5769279 C134.59768,97.5769279 133.183636,98.142884 132.478307,99.2719749 C131.771285,100.402759 131.418621,102.344953 131.418621,105.099687 L131.418621,107.324577 L144.239812,107.324577 L144.239812,119.403762 L131.418621,119.403762 L131.418621,119.403762 Z" id="Path" fill="#30C670"></path>
                <path d="M166.33185,146.899749 C167.990219,148.348213 170.374796,149.072163 173.483887,149.072163 C180.053605,149.072163 185.915737,148.860564 191.073668,148.436803 L194.040564,148.119122 L194.252163,158.608777 C186.128464,160.585956 178.78232,161.575674 172.212602,161.575674 C164.229404,161.575674 158.437806,159.456865 154.834984,155.218119 C151.232727,150.979937 149.431599,144.092539 149.431599,134.556489 C149.431599,115.554922 157.235925,106.053292 172.848527,106.053292 C188.247273,106.053292 195.947774,114.036489 195.947774,129.999498 L194.888088,139.853793 L163.736238,139.853793 C163.805078,143.10395 164.670658,145.452978 166.33185,146.899749 Z M181.960815,129.046458 C181.960815,124.807712 181.288777,121.859436 179.947524,120.198245 C178.604577,118.539875 176.255549,117.708715 172.901567,117.708715 C169.545893,117.708715 167.179373,118.574295 165.802006,120.30489 C164.425204,122.03605 163.699561,124.949906 163.630157,129.046458 L181.960815,129.046458 L181.960815,129.046458 Z" id="Shape" fill="#30C670"></path>
            </g>
            <g transform="translate(0.000000, 0.564263)">
                <path d="M121.510721,20.8890282 C108.07279,7.45109718 90.2053918,0.0502194357 71.2010031,0.0502194357 C52.1966144,0.0502194357 34.3292163,7.45109718 20.8912853,20.8890282 C7.45278997,34.3275235 0.0519122257,52.1943574 0.0519122257,71.1993103 C0.0519122257,104.727273 23.4914107,133.672853 56.0539185,140.726708 L71.2010031,160.922821 L86.3480878,140.726708 C118.910596,133.672853 142.350094,104.727273 142.350094,71.1993103 C142.350094,52.1949216 134.949216,34.3275235 121.510721,20.8890282 Z" id="Path" fill="#EC1C24"></path>
                <g transform="translate(29.905956, 26.520376)" fill="#FFFFFF" id="Path">
                    <path d="M78.6712853,41.0084013 C76.6077743,41.0084013 74.933605,39.334232 74.933605,37.270721 C74.933605,26.7867085 70.8517241,16.9341066 63.4401254,9.51855799 C61.9792476,8.05768025 61.9792476,5.69567398 63.4401254,4.23366771 C64.9010031,2.77278997 67.2635737,2.77278997 68.7250157,4.23366771 C77.550094,13.0581818 82.4084013,24.7909091 82.4084013,37.270721 C82.4084013,39.334232 80.7347962,41.0084013 78.6712853,41.0084013 Z"></path>
                    <path d="M3.91824451,41.0084013 C1.85529781,41.0084013 0.180564263,39.334232 0.180564263,37.270721 C0.180564263,24.7909091 5.03943574,13.0581818 13.8639498,4.23366771 C15.3248276,2.77278997 17.6873981,2.77278997 19.1488401,4.23366771 C20.6108464,5.69567398 20.6108464,8.05711599 19.1488401,9.51855799 C11.7372414,16.9301567 7.65592476,26.7867085 7.65592476,37.270721 C7.65648903,39.334232 5.98175549,41.0084013 3.91824451,41.0084013 Z"></path>
                    <path d="M76.3504702,63.550721 C70.6988088,58.7736677 67.4582445,51.7914734 67.4582445,44.3951097 L67.4582445,33.9742947 C67.4582445,20.8218809 57.6880251,9.9338558 45.0327273,8.11015674 L45.0327273,4.07285266 C45.0327273,2.00595611 43.3579937,0.335172414 41.295047,0.335172414 C39.2315361,0.335172414 37.5568025,2.00595611 37.5568025,4.07285266 L37.5568025,8.11015674 C24.8975549,9.9338558 15.1312853,20.8218809 15.1312853,33.9742947 L15.1312853,44.3945455 C15.1312853,51.7914734 11.890721,58.7731034 6.20633229,63.5800627 C4.75222571,64.8248276 3.91824451,66.6338558 3.91824451,68.5472727 C3.91824451,72.1546082 6.85241379,75.0887774 10.4597492,75.0887774 L72.1303448,75.0887774 C75.737116,75.0887774 78.6707213,72.1546082 78.6707213,68.5472727 C78.6707213,66.6338558 77.8378683,64.8248276 76.3504702,63.550721 Z"></path>
                    <path d="M41.295047,90.0389342 C48.0633856,90.0389342 53.7263323,85.2133542 55.0269592,78.8258934 L27.5625705,78.8258934 C28.8631975,85.2133542 34.5261442,90.0389342 41.295047,90.0389342 Z"></path>
                </g>
            </g>
        </g>
    </g>
</svg>